HIERARCHY
ROOT Hips
{
 OFFSET 0.000000 0.000000 0.000000
 CHANNELS 6 Xposition Yposition Zposition Yrotation Xrotation Zrotation
 JOINT Chest
 {
  OFFSET 0.000000 14.374500 -0.011500
  CHANNELS 3 Yrotation Xrotation Zrotation
  JOINT Chest2
  {
   OFFSET 0.000000 9.203400 0.023400
   CHANNELS 3 Yrotation Xrotation Zrotation
   JOINT Chest3
   {
    OFFSET 0.000000 9.162700 0.000000
    CHANNELS 3 Yrotation Xrotation Zrotation
    JOINT Chest4
    {
     OFFSET 0.000000 9.153300 0.000000
     CHANNELS 3 Yrotation Xrotation Zrotation
     JOINT Neck
     {
      OFFSET 0.000000 13.353600 0.000000
      CHANNELS 3 Yrotation Xrotation Zrotation
      JOINT Head
      {
       OFFSET 0.000000 8.573800 0.049400
       CHANNELS 3 Yrotation Xrotation Zrotation
       End Site
       {
        OFFSET 0.000000 16.219200 0.026100
       }
      }
     }
     JOINT RightCollar
     {
      OFFSET -2.497100 8.876100 0.000000
      CHANNELS 3 Yrotation Xrotation Zrotation
      JOINT RightShoulder
      {
       OFFSET -12.289200 0.000000 0.000000
       CHANNELS 3 Yrotation Xrotation Zrotation
       JOINT RightElbow
       {
        OFFSET 0.000000 -28.194900 0.000000
        CHANNELS 3 Yrotation Xrotation Zrotation
        JOINT RightWrist
        {
         OFFSET 0.000000 -23.009700 0.007900
         CHANNELS 3 Yrotation Xrotation Zrotation
         End Site
         {
          OFFSET 0.000000 -17.151500 0.000000
         }
        }
       }
      }
     }
     JOINT LeftCollar
     {
      OFFSET 2.497100 8.876100 0.000000
      CHANNELS 3 Yrotation Xrotation Zrotation
      JOINT LeftShoulder
      {
       OFFSET 12.289200 0.000000 0.000000
       CHANNELS 3 Yrotation Xrotation Zrotation
       JOINT LeftElbow
       {
        OFFSET 0.000000 -28.194900 0.000000
        CHANNELS 3 Yrotation Xrotation Zrotation
        JOINT LeftWrist
        {
         OFFSET 0.000000 -23.009700 0.007900
         CHANNELS 3 Yrotation Xrotation Zrotation
         End Site
         {
          OFFSET 0.000000 -17.151500 0.000000
         }
        }
       }
      }
     }
    }
   }
  }
 }
 JOINT RightHip
 {
  OFFSET -11.777600 0.056700 0.005700
  CHANNELS 3 Yrotation Xrotation Zrotation
  JOINT RightKnee
  {
   OFFSET 0.000000 -39.966000 -0.004200
   CHANNELS 3 Yrotation Xrotation Zrotation
   JOINT RightAnkle
   {
    OFFSET 0.000000 -41.981900 0.027400
    CHANNELS 3 Yrotation Xrotation Zrotation
    JOINT RightToe
    {
     OFFSET 0.000000 -9.910600 16.950100
     CHANNELS 3 Yrotation Xrotation Zrotation
     End Site
     {
      OFFSET 0.000000 -1.461000 6.191600
     }
    }
   }
  }
 }
 JOINT LeftHip
 {
  OFFSET 11.777600 0.056700 0.005700
  CHANNELS 3 Yrotation Xrotation Zrotation
  JOINT LeftKnee
  {
   OFFSET 0.000000 -39.966000 -0.004200
   CHANNELS 3 Yrotation Xrotation Zrotation
   JOINT LeftAnkle
   {
    OFFSET 0.000000 -41.981900 0.027400
    CHANNELS 3 Yrotation Xrotation Zrotation
    JOINT LeftToe
    {
     OFFSET 0.000000 -9.910600 16.950100
     CHANNELS 3 Yrotation Xrotation Zrotation
     End Site
     {
      OFFSET 0.000000 -1.461000 6.191600
     }
    }
   }
  }
 }
}
MOTION
Frames: 8
Frame Time: 0.008333
4.261282 130.198700 26.239747 167.587583 -36.970237 0.867268 5.216250 32.248688 7.430967 0.728465 7.045051 1.297792 1.190856 10.811474 2.040039 3.562613 25.177197 5.361686 6.575899 21.154978 -12.429103 10.431928 -1.748918 -15.801833 9.588026 -11.257144 -3.242776 36.310753 -34.084061 -13.797102 -100.530706 -36.933260 147.337805 -11.743320 -0.356162 -20.189705 -11.055722 -10.786126 2.190116 -13.036153 -31.014582 -3.226062 -8.664373 -58.237385 -11.756391 -11.623472 -12.238392 38.114582 12.032654 -40.929686 -0.129948 -75.491405 87.513331 -77.407506 1.175645 -24.776492 7.748002 0.005273 -0.008209 0.003083 0.994807 -37.295179 -2.706503 153.148973 68.721240 164.493447 0.782515 22.001112 0.252968 -0.004273 0.009235 -0.002499
4.261283 130.198162 26.241157 167.583512 -36.966091 0.880710 5.282436 32.218768 7.456890 0.703126 7.051462 1.299233 1.228715 10.787657 2.036375 3.551313 25.183129 5.377655 6.615011 21.149921 -12.398068 10.461092 -1.755525 -15.765663 9.525550 -11.256672 -3.201179 36.327927 -34.090642 -13.798181 -100.530610 -36.934455 147.316315 -11.767977 -0.318017 -20.265189 -11.106474 -10.768790 2.226330 -13.088082 -31.040574 -3.181442 -8.346633 -58.199028 -11.979651 -11.593501 -12.192888 38.012862 12.177375 -40.917776 -0.319986 -75.248219 87.576350 -77.057015 1.201448 -24.775591 7.753070 0.000058 -0.010958 0.000034 0.961359 -37.281218 -2.650223 153.243523 68.747264 164.560416 0.772113 22.034642 0.253556 -0.002960 0.006219 -0.001731
4.262198 130.198360 26.242643 167.582396 -36.967376 0.887625 5.297139 32.212238 7.458310 0.720716 7.042435 1.298813 1.206970 10.796842 2.040924 3.604492 25.160104 5.372220 6.655363 21.148193 -12.360096 10.491667 -1.756001 -15.724195 9.439506 -11.286175 -3.132177 36.350388 -34.048087 -13.792696 -100.538112 -36.922522 147.327070 -11.790024 -0.271375 -20.344413 -11.169928 -10.743393 2.260995 -13.138796 -31.068739 -3.135549 -8.063538 -58.154574 -12.170421 -11.564810 -12.141979 37.913305 12.308773 -40.905079 -0.499236 -75.066334 87.638529 -76.767010 1.192260 -24.746296 7.791137 -0.007506 -0.006338 -0.004388 0.912997 -37.260738 -2.577883 153.356063 68.776141 164.639620 0.760178 22.066806 0.255954 -0.002526 0.004162 -0.001477
4.262762 130.198826 26.244533 167.583074 -36.970939 0.893894 5.312896 32.206677 7.460692 0.745378 7.030071 1.298316 1.216971 10.789825 2.041992 3.630316 25.151134 5.380000 6.693725 21.152288 -12.311633 10.467994 -1.740974 -15.686220 9.361701 -11.282465 -3.078132 36.399191 -34.129304 -13.799580 -100.485387 -36.939737 147.235143 -11.801636 -0.228145 -20.429409 -11.236756 -10.728143 2.309494 -13.175592 -31.090160 -3.112270 -7.825415 -58.097242 -12.329734 -11.543388 -12.087060 37.823365 12.415227 -40.881708 -0.657883 -74.620528 87.703115 -76.238399 1.198109 -24.746450 7.801953 -0.008758 -0.007397 -0.005121 0.856867 -37.237371 -2.500359 153.463408 68.803533 164.711460 0.740230 22.095391 0.259144 -0.002025 0.005357 -0.001184
4.263366 130.199408 26.247106 167.580011 -36.975573 0.901717 5.384708 32.164105 7.496872 0.717097 7.046485 1.293642 1.266347 10.756709 2.046628 3.677710 25.133665 5.397759 6.685692 21.188517 -12.231465 10.445470 -1.724521 -15.655302 9.226234 -11.252275 -2.999332 36.446923 -34.194220 -13.815639 -100.423684 -36.918930 147.216130 -11.774301 -0.197140 -20.569924 -11.366286 -10.681951 2.378523 -13.194548 -31.117334 -3.099903 -7.624559 -58.024671 -12.463327 -11.564255 -12.073946 37.771055 12.493909 -40.855268 -0.785932 -74.143567 87.764511 -75.703683 1.197089 -24.758005 7.803685 -0.003942 -0.008081 -0.002304 0.800666 -37.212690 -2.418570 153.559928 68.836494 164.768457 0.721901 22.127884 0.268933 -0.005328 -0.000214 -0.003115
4.263036 130.199914 26.250373 167.589359 -36.980346 0.905767 5.409832 32.143873 7.512154 0.722809 7.040720 1.294982 1.288438 10.740893 2.051634 3.707821 25.120982 5.413367 6.695603 21.218037 -12.174587 10.474348 -1.708112 -15.616394 9.125631 -11.252103 -2.931655 36.495544 -34.216918 -13.838871 -100.389665 -36.914166 147.187312 -11.756453 -0.165962 -20.670968 -11.444294 -10.697092 2.451960 -13.197356 -31.118880 -3.138117 -7.463844 -57.937047 -12.568491 -11.576996 -12.068884 37.722805 12.543554 -40.829979 -0.893897 -73.718405 87.819092 -75.240070 1.179116 -24.759229 7.822646 0.001339 -0.006237 0.000783 0.737015 -37.185206 -2.339727 153.661705 68.874632 164.838175 0.700061 22.145168 0.261366 -0.004186 -0.009910 -0.002447
4.265370 130.201411 26.253464 167.586875 -36.992998 0.907878 5.452251 32.130782 7.541357 0.769573 7.009009 1.305108 1.254844 10.759029 2.054058 3.730978 25.110779 5.428316 6.674443 21.245473 -12.138194 10.526173 -1.697513 -15.575028 9.056330 -11.254225 -2.882105 36.534388 -34.241627 -13.867625 -100.359714 -36.914418 147.132455 -11.731338 -0.133660 -20.746494 -11.504745 -10.697623 2.491715 -13.213199 -31.149178 -3.143758 -7.344441 -57.837064 -12.639331 -11.551973 -12.027191 37.658050 12.575247 -40.801666 -0.962522 -73.414675 87.854335 -74.913928 1.167652 -24.758250 7.844924 0.010586 -0.006403 0.006189 0.674648 -37.147916 -2.241014 153.620769 68.901620 164.766462 0.628889 22.185099 0.272666 -0.008134 -0.008357 -0.004756
4.268249 130.203028 26.257226 167.586076 -37.007644 0.907910 5.491164 32.118993 7.573708 0.773263 7.003630 1.307886 1.260710 10.751236 2.058544 3.747865 25.100810 5.442871 6.657096 21.277061 -12.109969 10.593637 -1.694015 -15.466779 8.998749 -11.262766 -2.843126 36.573385 -34.251742 -13.893851 -100.360662 -36.904724 147.148971 -11.728507 -0.119631 -20.851013 -11.560608 -10.679247 2.508720 -13.231371 -31.201048 -3.130262 -7.255944 -57.729322 -12.682534 -11.540211 -11.999423 37.596981 12.582796 -40.776167 -0.994584 -73.331655 87.863252 -74.836320 1.125269 -24.738621 7.892945 0.030297 -0.013672 0.017712 0.608387 -37.108587 -2.136248 153.672366 68.949805 164.785012 0.594202 22.262590 0.277305 -0.015131 0.001757 -0.008847
